<svg width="88" height="68" viewBox="0 0 88 68" fill="none" xmlns="http://www.w3.org/2000/svg">
<path d="M6 0C2.71059 0 0 2.71059 0 6V48C0 51.2894 2.71059 54 6 54H54.2812C55.7128 61.9342 62.6645 68 71 68C80.3652 68 88 60.3652 88 51C88 42.6645 81.9342 35.7128 74 34.2812V6C74 2.71059 71.2894 0 68 0H6ZM6 4H68C69.1426 4 70 4.85741 70 6V34.0625C66.6285 34.2626 63.5032 35.42 60.9375 37.3125L49.2812 27.4688C48.957 27.1989 48.5557 27.0384 48.1347 27.0103C47.7138 26.9823 47.2947 27.088 46.9375 27.3125L37.125 33.5625L24.25 23.4375C23.8785 23.1402 23.4131 22.9851 22.9375 23C22.5686 23.0172 22.2117 23.1362 21.9062 23.3438L4 35.0938V6C4 4.85741 4.85741 4 6 4ZM41 7C36.0531 7 32 11.0531 32 16C32 20.9469 36.0531 25 41 25C45.9469 25 50 20.9469 50 16C50 11.0531 45.9469 7 41 7ZM41 11C43.7851 11 46 13.2149 46 16C46 18.7851 43.7851 21 41 21C38.2149 21 36 18.7851 36 16C36 13.2149 38.2149 11 41 11ZM22.875 27.4375L35.75 37.5625C36.0749 37.8206 36.472 37.9713 36.8863 37.9937C37.3006 38.0161 37.7117 37.9091 38.0625 37.6875L47.8438 31.4688L58 40.0625C55.7075 42.7809 54.286 46.2346 54.0625 50H6C4.85741 50 4 49.1426 4 48V39.875L22.875 27.4375ZM71 38C78.2034 38 84 43.7966 84 51C84 58.2034 78.2034 64 71 64C63.7966 64 58 58.2034 58 51C58 43.7966 63.7966 38 71 38ZM70.7812 41.9688C70.2842 42.0234 69.8256 42.2622 69.4959 42.6382C69.1662 43.0142 68.9892 43.5 69 44V49H64C63.9375 48.9971 63.875 48.9971 63.8125 49C63.5498 49.0123 63.2921 49.0761 63.0541 49.188C62.8162 49.2999 62.6025 49.4575 62.4255 49.6519C62.2484 49.8464 62.1114 50.0738 62.0222 50.3212C61.9331 50.5686 61.8935 50.8311 61.9059 51.0938C61.9182 51.3564 61.9821 51.6141 62.094 51.8521C62.2059 52.0901 62.3636 52.3036 62.5581 52.4807C62.7525 52.6577 62.98 52.7946 63.2274 52.8838C63.4748 52.9729 63.7373 53.0124 64 53H69V58C68.9963 58.265 69.0452 58.5282 69.144 58.7741C69.2429 59.02 69.3896 59.2439 69.5757 59.4326C69.7618 59.6214 69.9835 59.7712 70.228 59.8735C70.4725 59.9758 70.7349 60.0285 71 60.0285C71.2651 60.0285 71.5275 59.9758 71.772 59.8735C72.0165 59.7712 72.2382 59.6214 72.4243 59.4326C72.6104 59.2439 72.7571 59.02 72.856 58.7741C72.9548 58.5282 73.0037 58.265 73 58V53H78C78.265 53.0037 78.5282 52.9548 78.7741 52.856C79.02 52.7571 79.2439 52.6104 79.4326 52.4243C79.6214 52.2382 79.7712 52.0165 79.8735 51.772C79.9758 51.5275 80.0285 51.2651 80.0285 51C80.0285 50.7349 79.9758 50.4725 79.8735 50.228C79.7712 49.9835 79.6214 49.7618 79.4326 49.5757C79.2439 49.3896 79.02 49.2429 78.7741 49.144C78.5282 49.0452 78.265 48.9963 78 49H73V44C73.0042 43.7321 72.9545 43.4661 72.8539 43.2177C72.7533 42.9694 72.6039 42.7438 72.4144 42.5544C72.2249 42.3649 71.9993 42.2154 71.751 42.1148C71.5027 42.0142 71.2367 41.9646 70.9688 41.9688C70.9063 41.9658 70.8437 41.9658 70.7812 41.9688Z" fill="black"/>
</svg>
