<svg width="56" height="56" viewBox="0 0 56 56" fill="none" xmlns="http://www.w3.org/2000/svg">
<g id="mingcute:pic-line" clip-path="url(#clip0_1_743)">
<g id="Group">
<path id="Vector" d="M46.6668 7C47.8441 6.99963 48.9781 7.44428 49.8414 8.24483C50.7047 9.04537 51.2335 10.1426 51.3218 11.3167L51.3334 11.6667V44.3333C51.3338 45.5107 50.8891 46.6447 50.0886 47.5079C49.288 48.3712 48.1908 48.9 47.0168 48.9883L46.6668 49H9.33342C8.15607 49.0004 7.02209 48.5557 6.1588 47.7552C5.29551 46.9546 4.76672 45.8574 4.67842 44.6833L4.66675 44.3333V11.6667C4.66638 10.4893 5.11103 9.35534 5.91157 8.49205C6.71212 7.62876 7.80939 7.09997 8.98342 7.01167L9.33342 7H46.6668ZM23.0511 28.1167L9.85142 41.3163C9.69783 41.4705 9.52348 41.6024 9.33342 41.7083V44.3333H46.6668V41.7083C46.4767 41.6025 46.3023 41.4705 46.1488 41.3163L39.5501 34.72L37.9004 36.3697L38.3834 36.8527C38.6001 37.0695 38.7719 37.3268 38.8891 37.61C39.0062 37.8932 39.0665 38.1967 39.0664 38.5032C39.0663 38.8096 39.0058 39.1131 38.8884 39.3962C38.771 39.6793 38.599 39.9365 38.3822 40.1532C38.1655 40.3698 37.9081 40.5416 37.6249 40.6588C37.3417 40.776 37.0382 40.8362 36.7318 40.8361C36.4253 40.836 36.1218 40.7756 35.8387 40.6582C35.5556 40.5408 35.2984 40.3688 35.0817 40.152L23.0534 28.1167H23.0511ZM46.6668 11.6667H9.33342V35.2333L20.9884 23.5807C21.4965 23.0727 22.1741 22.7702 22.8915 22.731C23.6088 22.6918 24.3154 22.9188 24.8757 23.3683L25.1114 23.5783L34.5988 33.068L37.4874 30.1793C37.9955 29.6714 38.6731 29.3688 39.3905 29.3297C40.1078 29.2905 40.8144 29.5174 41.3748 29.967L41.6128 30.1793L46.6668 35.2357V11.6667ZM36.1667 16.3333C37.095 16.3333 37.9852 16.7021 38.6416 17.3585C39.298 18.0148 39.6668 18.9051 39.6668 19.8333C39.6668 20.7616 39.298 21.6518 38.6416 22.3082C37.9852 22.9646 37.095 23.3333 36.1667 23.3333C35.2385 23.3333 34.3483 22.9646 33.6919 22.3082C33.0355 21.6518 32.6667 20.7616 32.6667 19.8333C32.6667 18.9051 33.0355 18.0148 33.6919 17.3585C34.3483 16.7021 35.2385 16.3333 36.1667 16.3333Z" fill="#B5B5B5"/>
</g>
</g>
<defs>
<clipPath id="clip0_1_743">
<rect width="56" height="56" fill="white"/>
</clipPath>
</defs>
</svg>
