<svg width="12" height="9" viewBox="0 0 12 9" fill="none" xmlns="http://www.w3.org/2000/svg">
<g id="iconDownArrowBold">
<path id="iconDownArrowBold_2" d="M5.95796 3.3293C6.88736 2.50783 7.85093 1.72118 8.84865 0.969342C8.90097 0.929058 8.95921 0.905868 9.01779 0.897633C9.13106 0.842286 9.2823 0.838723 9.40845 0.95136L9.41121 0.953823L9.41119 0.953845C10.0283 1.52325 10.5968 2.14073 11.1111 2.80017L11.1137 2.80351L11.1137 2.80353C11.1371 2.83469 11.1557 2.86976 11.1677 2.90768C11.1981 2.95241 11.2203 3.00691 11.2253 3.06925C11.2341 3.18061 11.1848 3.28162 11.1008 3.35035L11.0974 3.35316L11.0973 3.35312C9.3624 4.71673 7.8091 6.28578 6.47338 8.02385C6.43423 8.07559 6.38521 8.11264 6.33218 8.13589C6.28647 8.17625 6.2296 8.20653 6.16545 8.2195C6.05812 8.2412 5.94217 8.21107 5.85512 8.12242M5.95796 3.3293L1.10589 3.06636L1.09292 3.19076C1.06315 3.18766 1.03341 3.18078 1.00468 3.17027L0.991913 3.18338C0.99122 3.1827 0.990529 3.18202 0.989842 3.18134M5.95796 3.3293L3.06305 0.912334M5.95796 3.3293L2.89241 1.06463M5.85512 8.12242L6.01656 7.96388L5.85533 8.12264L5.85512 8.12242ZM5.85512 8.12242L0.989842 3.18134M0.989842 3.18134L0.988564 3.18005L1.00019 3.1686C0.987716 3.16386 0.975446 3.15843 0.96346 3.15232M0.989842 3.18134C0.980522 3.17212 0.97171 3.16244 0.96346 3.15232M0.96346 3.15232C0.909622 3.1249 0.861543 3.08385 0.826696 3.03032C0.756381 2.9223 0.75337 2.78185 0.83398 2.66335M0.96346 3.15232C0.932462 3.11429 0.909388 3.0701 0.897018 3.02117L1.1162 2.96576C1.11618 2.96574 1.11616 2.96571 1.11614 2.96569L0.83398 2.66335M0.83398 2.66335C0.833858 2.66353 0.833736 2.66371 0.833614 2.66389L1.02132 2.79024L0.834596 2.66244C0.83439 2.66274 0.834185 2.66304 0.83398 2.66335ZM0.83398 2.66335C1.30731 1.96033 1.89993 1.34127 2.58624 0.832592C2.59622 0.825198 2.60679 0.818638 2.61784 0.812978C2.69578 0.773062 2.78564 0.763283 2.87011 0.785062C2.94641 0.804735 3.01461 0.849255 3.06305 0.912334M0.83398 2.66335L2.72098 1.01438C2.74946 0.999789 2.78251 0.996146 2.81362 1.00417C2.84473 1.01219 2.87161 1.03129 2.88895 1.05769L2.89241 1.06463M3.06305 0.912334L3.03743 0.890941L2.90945 1.04422L2.90572 1.0487L2.89241 1.06463M3.06305 0.912334C3.06829 0.919161 3.0733 0.926204 3.07807 0.933458C3.08175 0.93906 3.08518 0.944824 3.08835 0.950731C3.09172 0.957031 3.09491 0.963417 3.09789 0.96988L2.89241 1.06463M10.3974 3.02119C8.79841 4.31091 7.35468 5.77328 6.09395 7.38028L1.59534 2.8073C1.93108 2.34935 2.32529 1.93455 2.76858 1.57296L6.01982 4.28741L6.01981 4.28742L6.02155 4.28884C6.19276 4.42893 6.39646 4.3688 6.50244 4.26557C6.5562 4.21321 6.60325 4.13464 6.60827 4.03816C6.61335 3.94037 6.57356 3.85027 6.50296 3.78491C7.35827 3.0398 8.22952 2.3235 9.11672 1.636C9.57537 2.06897 10.0033 2.53177 10.3974 3.02119Z" fill="#FFEDE4" stroke="#FFEDE4" stroke-width="0.452541" stroke-linejoin="round"/>
</g>
</svg>
