<svg width="26" height="24" viewBox="0 0 26 24" fill="none" xmlns="http://www.w3.org/2000/svg">
<g id="iconHeartBold">
<path id="iconHeartBold_2" d="M11.313 11.0273L11.3415 10.9128L11.313 11.0273C11.4429 11.0596 11.5801 11.0384 11.6942 10.9687C11.7327 10.9452 11.7621 10.9116 11.7805 10.873C12.744 10.1946 13.4433 9.19645 13.7548 8.0504C14.034 7.02331 13.9853 5.93822 13.623 4.94724C14.0778 4.06081 14.7468 3.30486 15.5681 2.74954C16.3956 2.18995 17.3505 1.85251 18.3426 1.7688C19.333 1.71219 20.3205 1.92275 21.2039 2.37904C22.0882 2.83579 22.8362 3.52234 23.3709 4.3683L23.3722 4.37021C24.7456 6.49572 24.437 8.73839 23.4117 10.8757C22.3833 13.0195 20.6514 15.0171 19.2437 16.6106L19.2434 16.6109C17.4853 18.6079 15.5804 20.4679 13.545 22.1748C12.4895 21.443 11.5525 20.5497 10.768 19.5267C10.765 19.5228 10.762 19.5191 10.7588 19.5154L7.85012 16.1904L7.84986 16.1901L4.76562 12.6767L4.76594 12.6764L4.75605 12.6665C3.84505 11.75 3.03596 10.7356 2.34325 9.64147C1.03715 7.22229 2.49671 4.48515 4.7338 3.14491L4.7339 3.14508L4.74188 3.13983C5.77766 2.45832 7.00421 2.13472 8.23731 2.21735C9.47002 2.29995 10.6432 2.78409 11.5807 3.59749C12.0496 4.01325 12.4178 4.5323 12.6569 5.11474C12.8962 5.69755 12.9997 6.32815 12.9595 6.95789C12.9192 7.58762 12.7363 8.1995 12.4249 8.74634C12.1143 9.29184 11.6841 9.75801 11.1676 10.1092C11.0564 10.1791 10.9771 10.2897 10.946 10.4171C10.9144 10.5465 10.935 10.6833 11.0035 10.7976C11.072 10.9121 11.1832 10.995 11.313 11.0273ZM13.9906 23.1098C14.0199 23.0862 14.0424 23.056 14.0567 23.0222C16.2608 21.2067 18.3138 19.2117 20.195 17.0573C22.0313 15.1396 23.5295 12.919 24.6246 10.4917L24.6255 10.4896C25.1025 9.40284 25.3005 8.21241 25.2014 7.02815C25.1024 5.84389 24.7094 4.70377 24.0586 3.71309L24.0587 3.71308L24.057 3.71058C23.4514 2.81492 22.6404 2.08002 21.6928 1.56861C20.7451 1.05719 19.689 0.784456 18.6143 0.773741L18.6143 0.773589L18.606 0.77381C17.3876 0.806341 16.2004 1.16823 15.1679 1.82157C14.328 2.35311 13.6156 3.06169 13.0777 3.89552C12.4546 2.96907 11.5946 2.22404 10.5836 1.74314C9.37881 1.17 8.02349 1.00244 6.71717 1.26519C5.29214 1.49927 3.96959 2.15935 2.92025 3.15985C1.86992 4.1613 1.14165 5.45771 0.829304 6.88121C0.828092 6.88673 0.827087 6.8923 0.826292 6.8979C0.6336 8.25546 0.975122 9.63546 1.77817 10.7422L1.77816 10.7422L1.77956 10.7441C2.80138 12.1219 3.90628 13.4348 5.08801 14.6754L9.30387 19.3638C10.374 20.83 11.6814 22.1037 13.171 23.1313C13.1819 23.1388 13.1935 23.1454 13.2056 23.1509C13.2919 23.1903 13.3871 23.204 13.48 23.1913C13.6341 23.2494 13.8256 23.2432 13.9906 23.1098Z" fill="#FFEDE4" stroke="#FFEDE4" stroke-width="0.452541" stroke-linejoin="round"/>
</g>
</svg>
